<svg width="128" height="128" viewBox="0 0 128 128" fill="none" xmlns="http://www.w3.org/2000/svg">
<g clip-path="url(#clip0_7_12)">
<rect width="128" height="128" fill="#4F90EE"/>
<g filter="url(#filter0_i_7_12)">
<path d="M58.2649 10.2437C61.1345 4.48414 69.1205 3.48883 73.1125 8.6792C74.1854 10.081 74.8437 11.7535 75.0139 13.5083C75.1951 15.2851 74.7954 17.7786 74.7073 19.6118C74.575 22.362 74.4471 25.117 74.3127 27.8677C74.103 32.1647 74.0964 36.4712 73.9104 40.772C73.8481 42.2117 73.9202 43.757 73.8411 45.1782C79.318 41.2139 87.6591 39.7354 94.3127 40.8081C101.013 41.8883 111.744 46.56 110.404 55.0132C110.228 56.1203 109.695 57.5473 109.035 58.4692C110.074 60.6425 111.281 62.9349 112.258 65.0903C114.069 65.3214 119.976 65.7718 121.007 66.7065C121.104 66.9616 121.174 67.0396 121.051 67.3032C120.616 68.2406 114.453 70.8676 113.199 71.5024C112.93 73.4172 112.668 75.6094 112.308 77.4888C117.7 77.9302 121.207 81.692 120.486 87.1792C119.113 97.6028 110.817 108.427 101.817 113.673C104.841 122.661 106.717 134.434 106.684 143.898H23.6946C24.8299 134.782 28.1828 118.72 32.4631 110.46C25.6996 99.8419 24.5942 90.0114 25.1038 77.8716L14.2327 62.4263C12.4031 59.8082 8.64721 54.7211 7.55981 51.9966C6.9448 50.4391 6.7756 48.7417 7.07153 47.0942C7.44686 45.0026 8.66141 43.153 10.4338 41.9722C13.0366 40.2379 16.8511 40.1107 19.4661 42.0249C22.2429 44.0576 24.5387 47.2575 27.0295 49.6655C29.6264 52.4211 32.3552 55.1666 34.8821 57.9204C34.339 56.4635 33.8785 54.8972 33.4387 53.3979C31.4371 46.573 29.1012 39.7722 27.5754 32.8237C26.7756 29.1814 25.5904 24.9492 27.2346 21.4077C28.1487 19.4592 29.8597 17.7554 31.9055 17.0522C34.0673 16.2957 36.4451 16.4433 38.4963 17.4604C42.7857 19.6077 43.9862 24.838 45.6536 29.0024C47.8235 34.4222 50.1318 40.1601 51.9329 45.7056C52.3074 42.3499 52.476 38.8775 52.8303 35.4644C53.4466 29.4169 54.4696 23.4175 55.8909 17.5063C56.5156 14.9714 57.0932 12.5954 58.2649 10.2437ZM106.722 60.8179C102.157 62.7459 101.246 61.9248 96.6321 61.0347C91.5318 60.0509 86.9463 63.3576 85.0403 67.9507C82.5601 73.9277 85.123 81.9615 91.3801 84.4448C92.4094 84.8423 93.4864 85.1066 94.5833 85.23C99.4296 85.2155 101.463 82.8431 104.645 79.8774C105.693 78.9003 107.892 78.0096 109.304 77.6323C108.569 75.9048 107.798 74.2768 106.993 72.5806C105.289 72.3192 98.957 71.8391 98.0901 70.9399C97.8738 69.8298 104.746 66.9207 106.006 66.2749C106.154 65.4758 107.013 61.2571 106.741 60.8335C106.737 60.8266 106.728 60.8231 106.722 60.8179Z" fill="black"/>
</g>
<mask id="path-2-outside-1_7_12" maskUnits="userSpaceOnUse" x="5.92993" y="4.29932" width="117" height="141" fill="black">
<rect fill="white" x="5.92993" y="4.29932" width="117" height="141"/>
<path d="M58.2651 10.2436C61.1347 4.48406 69.1207 3.48875 73.1128 8.67911C74.1856 10.0809 74.8439 11.7534 75.0142 13.5082C75.1954 15.285 74.7956 17.7786 74.7075 19.6117C74.5752 22.3619 74.4474 25.1169 74.313 27.8676C74.1032 32.1646 74.0967 36.4712 73.9106 40.7719C73.8483 42.2116 73.9204 43.757 73.8413 45.1781C79.3182 41.2138 87.6594 39.7353 94.313 40.808C101.013 41.8883 111.744 46.5599 110.404 55.0131C110.228 56.1203 109.695 57.5472 109.036 58.4692C110.074 60.6424 111.281 62.9348 112.258 65.0902C114.07 65.3214 119.977 65.7717 121.007 66.7065C121.104 66.9616 121.174 67.0395 121.051 67.3031C120.617 68.2406 114.453 70.8675 113.2 71.5024C112.93 73.4171 112.668 75.6093 112.308 77.4887C117.7 77.9301 121.207 81.6919 120.486 87.1791C119.113 97.6027 110.817 108.427 101.817 113.673C104.841 122.661 106.717 134.434 106.684 143.898H105.684C105.585 143.124 105.566 142.235 105.534 141.452C105.142 131.803 103.532 122.419 100.537 113.254L102.014 112.257C109.561 107.104 115.37 100.445 118.346 91.7162C120.567 85.2015 120.067 79.9212 112.195 78.4994C112.158 79.34 112.223 80.6543 111.063 80.5297C110.304 80.0949 110.2 79.4429 109.924 78.6274C104.133 80.0578 104.484 82.6044 100.493 84.8442C97.9428 86.2847 94.9218 86.6526 92.0991 85.8656C88.8501 84.9605 86.3569 82.6181 84.7505 79.7201C82.9201 76.3956 82.4779 72.4856 83.52 68.8383C84.2425 66.3484 85.5947 64.0469 87.6108 62.3832C94.8467 56.413 100.375 62.9746 106.014 59.809C107.658 58.8864 108.738 57.2357 109.208 55.4399C109.766 53.3048 109.215 51.2625 108.113 49.4037C105.995 45.8321 100.465 43.4433 96.6128 42.4447C88.9886 40.4687 80.147 41.8865 73.7456 46.5649C71.8117 47.9783 70.294 50.0322 68.2329 51.2338C69.131 49.0055 70.859 47.5816 72.6577 46.0639C72.6506 45.0365 72.6884 43.9649 72.7436 42.9389C73.0437 37.3603 72.948 31.6551 73.2905 26.0902L73.7339 18.3412C73.8158 16.8821 73.9221 15.5143 73.9136 14.0668C73.8808 7.58492 66.0654 3.89969 61.1489 8.309C59.0687 10.0906 58.2861 12.7351 57.5845 15.3168C54.2074 27.7424 53.177 40.6676 52.77 53.4906C52.7509 54.0929 52.6858 55.1964 51.9477 55.2113C51.5208 54.6666 52.0578 49.5726 51.7124 48.3393C51.272 46.7686 50.6715 45.2702 50.1235 43.7641C48.5636 39.5053 46.9439 35.2677 45.2651 31.0541C44.1461 28.2108 43.0575 25.2937 41.8599 22.4848C40.486 19.2628 36.7818 17.0462 33.2183 17.8217C31.3522 18.2236 29.7278 19.3608 28.7153 20.974C26.9201 23.8152 27.379 26.4944 28.0015 29.5522C30.2274 40.4853 34.0781 51.0126 37.1323 61.7279C37.3185 62.381 37.3287 62.6764 36.9741 63.2289L36.7515 63.2211C35.9929 62.1213 35.8449 60.2498 34.8364 59.4164C30.7674 56.0534 21.0744 43.2757 16.7739 42.0072C15.0205 41.4721 13.1239 41.6725 11.522 42.5619C9.94254 43.4291 8.7863 44.9011 8.31982 46.6371C7.89199 48.1517 7.93568 49.7599 8.44482 51.2494C9.2059 53.4186 11.7381 56.9644 13.1089 58.9223L21.2788 70.5746C22.3748 72.1065 25.333 76.0283 26.1626 77.5463L26.2339 77.6781C26.2334 79.4851 26.0822 81.3215 26.0727 83.142C26.0222 92.8075 28.3312 102.283 33.7749 110.394C32.8116 112.086 31.7128 114.936 31.0405 116.839C27.9671 125.541 26.0389 134.775 24.7661 143.898H23.6948C24.8301 134.781 28.1831 118.72 32.4634 110.46C25.6999 99.8418 24.5944 90.0114 25.104 77.8715L14.2329 62.4262C12.4034 59.8081 8.64745 54.7211 7.56005 51.9965C6.94504 50.439 6.77584 48.7416 7.07177 47.0942C7.4471 45.0025 8.66165 43.153 10.4341 41.9721C13.0368 40.2379 16.8514 40.1106 19.4663 42.0248C22.2432 44.0575 24.539 47.2574 27.0298 49.6654C29.6266 52.421 32.3554 55.1665 34.8823 57.9203C34.3392 56.4634 33.8787 54.8971 33.439 53.3979C31.4373 46.5729 29.1014 39.7722 27.5757 32.8236C26.7759 29.1813 25.5906 24.9492 27.2349 21.4076C28.1489 19.4591 29.8599 17.7553 31.9058 17.0522C34.0675 16.2956 36.4453 16.4433 38.4966 17.4604C42.7859 19.6076 43.9864 24.8379 45.6538 29.0024C47.8237 34.4221 50.132 40.16 51.9331 45.7055C52.3076 42.3498 52.4762 38.8774 52.8306 35.4643C53.4468 29.4168 54.4698 23.4174 55.8911 17.5063C56.5158 14.9714 57.0934 12.5953 58.2651 10.2436ZM106.722 60.8178C102.157 62.7458 101.246 61.9247 96.6323 61.0346C91.532 60.0508 86.9466 63.3576 85.0405 67.9506C82.5604 73.9276 85.1232 81.9615 91.3804 84.4447C92.4097 84.8422 93.4867 85.1065 94.5835 85.2299C99.4298 85.2154 101.464 82.843 104.645 79.8774C105.693 78.9002 107.892 78.0096 109.304 77.6322C108.569 75.9047 107.798 74.2767 106.994 72.5805C105.289 72.3192 98.9573 71.839 98.0903 70.9399C97.874 69.8297 104.746 66.9206 106.006 66.2748C106.154 65.4757 107.013 61.257 106.742 60.8334C106.737 60.8266 106.729 60.823 106.722 60.8178Z"/>
</mask>
<path d="M58.2651 10.2436C61.1347 4.48406 69.1207 3.48875 73.1128 8.67911C74.1856 10.0809 74.8439 11.7534 75.0142 13.5082C75.1954 15.285 74.7956 17.7786 74.7075 19.6117C74.5752 22.3619 74.4474 25.1169 74.313 27.8676C74.1032 32.1646 74.0967 36.4712 73.9106 40.7719C73.8483 42.2116 73.9204 43.757 73.8413 45.1781C79.3182 41.2138 87.6594 39.7353 94.313 40.808C101.013 41.8883 111.744 46.5599 110.404 55.0131C110.228 56.1203 109.695 57.5472 109.036 58.4692C110.074 60.6424 111.281 62.9348 112.258 65.0902C114.07 65.3214 119.977 65.7717 121.007 66.7065C121.104 66.9616 121.174 67.0395 121.051 67.3031C120.617 68.2406 114.453 70.8675 113.2 71.5024C112.93 73.4171 112.668 75.6093 112.308 77.4887C117.7 77.9301 121.207 81.6919 120.486 87.1791C119.113 97.6027 110.817 108.427 101.817 113.673C104.841 122.661 106.717 134.434 106.684 143.898H105.684C105.585 143.124 105.566 142.235 105.534 141.452C105.142 131.803 103.532 122.419 100.537 113.254L102.014 112.257C109.561 107.104 115.37 100.445 118.346 91.7162C120.567 85.2015 120.067 79.9212 112.195 78.4994C112.158 79.34 112.223 80.6543 111.063 80.5297C110.304 80.0949 110.2 79.4429 109.924 78.6274C104.133 80.0578 104.484 82.6044 100.493 84.8442C97.9428 86.2847 94.9218 86.6526 92.0991 85.8656C88.8501 84.9605 86.3569 82.6181 84.7505 79.7201C82.9201 76.3956 82.4779 72.4856 83.52 68.8383C84.2425 66.3484 85.5947 64.0469 87.6108 62.3832C94.8467 56.413 100.375 62.9746 106.014 59.809C107.658 58.8864 108.738 57.2357 109.208 55.4399C109.766 53.3048 109.215 51.2625 108.113 49.4037C105.995 45.8321 100.465 43.4433 96.6128 42.4447C88.9886 40.4687 80.147 41.8865 73.7456 46.5649C71.8117 47.9783 70.294 50.0322 68.2329 51.2338C69.131 49.0055 70.859 47.5816 72.6577 46.0639C72.6506 45.0365 72.6884 43.9649 72.7436 42.9389C73.0437 37.3603 72.948 31.6551 73.2905 26.0902L73.7339 18.3412C73.8158 16.8821 73.9221 15.5143 73.9136 14.0668C73.8808 7.58492 66.0654 3.89969 61.1489 8.309C59.0687 10.0906 58.2861 12.7351 57.5845 15.3168C54.2074 27.7424 53.177 40.6676 52.77 53.4906C52.7509 54.0929 52.6858 55.1964 51.9477 55.2113C51.5208 54.6666 52.0578 49.5726 51.7124 48.3393C51.272 46.7686 50.6715 45.2702 50.1235 43.7641C48.5636 39.5053 46.9439 35.2677 45.2651 31.0541C44.1461 28.2108 43.0575 25.2937 41.8599 22.4848C40.486 19.2628 36.7818 17.0462 33.2183 17.8217C31.3522 18.2236 29.7278 19.3608 28.7153 20.974C26.9201 23.8152 27.379 26.4944 28.0015 29.5522C30.2274 40.4853 34.0781 51.0126 37.1323 61.7279C37.3185 62.381 37.3287 62.6764 36.9741 63.2289L36.7515 63.2211C35.9929 62.1213 35.8449 60.2498 34.8364 59.4164C30.7674 56.0534 21.0744 43.2757 16.7739 42.0072C15.0205 41.4721 13.1239 41.6725 11.522 42.5619C9.94254 43.4291 8.7863 44.9011 8.31982 46.6371C7.89199 48.1517 7.93568 49.7599 8.44482 51.2494C9.2059 53.4186 11.7381 56.9644 13.1089 58.9223L21.2788 70.5746C22.3748 72.1065 25.333 76.0283 26.1626 77.5463L26.2339 77.6781C26.2334 79.4851 26.0822 81.3215 26.0727 83.142C26.0222 92.8075 28.3312 102.283 33.7749 110.394C32.8116 112.086 31.7128 114.936 31.0405 116.839C27.9671 125.541 26.0389 134.775 24.7661 143.898H23.6948C24.8301 134.781 28.1831 118.72 32.4634 110.46C25.6999 99.8418 24.5944 90.0114 25.104 77.8715L14.2329 62.4262C12.4034 59.8081 8.64745 54.7211 7.56005 51.9965C6.94504 50.439 6.77584 48.7416 7.07177 47.0942C7.4471 45.0025 8.66165 43.153 10.4341 41.9721C13.0368 40.2379 16.8514 40.1106 19.4663 42.0248C22.2432 44.0575 24.539 47.2574 27.0298 49.6654C29.6266 52.421 32.3554 55.1665 34.8823 57.9203C34.3392 56.4634 33.8787 54.8971 33.439 53.3979C31.4373 46.5729 29.1014 39.7722 27.5757 32.8236C26.7759 29.1813 25.5906 24.9492 27.2349 21.4076C28.1489 19.4591 29.8599 17.7553 31.9058 17.0522C34.0675 16.2956 36.4453 16.4433 38.4966 17.4604C42.7859 19.6076 43.9864 24.8379 45.6538 29.0024C47.8237 34.4221 50.132 40.16 51.9331 45.7055C52.3076 42.3498 52.4762 38.8774 52.8306 35.4643C53.4468 29.4168 54.4698 23.4174 55.8911 17.5063C56.5158 14.9714 57.0934 12.5953 58.2651 10.2436ZM106.722 60.8178C102.157 62.7458 101.246 61.9247 96.6323 61.0346C91.532 60.0508 86.9466 63.3576 85.0405 67.9506C82.5604 73.9276 85.1232 81.9615 91.3804 84.4447C92.4097 84.8422 93.4867 85.1065 94.5835 85.2299C99.4298 85.2154 101.464 82.843 104.645 79.8774C105.693 78.9002 107.892 78.0096 109.304 77.6322C108.569 75.9047 107.798 74.2767 106.994 72.5805C105.289 72.3192 98.9573 71.839 98.0903 70.9399C97.874 69.8297 104.746 66.9206 106.006 66.2748C106.154 65.4757 107.013 61.257 106.742 60.8334C106.737 60.8266 106.729 60.823 106.722 60.8178Z" fill="#FEFEFE"/>
<path d="M58.2651 10.2436L57.5354 9.87999L57.5354 9.88L58.2651 10.2436ZM73.1128 8.67911L73.7602 8.18362L73.759 8.18207L73.1128 8.67911ZM75.0142 13.5082L74.2027 13.5869L74.2031 13.5909L75.0142 13.5082ZM74.7075 19.6117L75.5219 19.6509V19.6509L74.7075 19.6117ZM74.313 27.8676L73.4987 27.8278V27.8278L74.313 27.8676ZM73.9106 40.7719L74.7252 40.8072V40.8071L73.9106 40.7719ZM73.8413 45.1781L73.0273 45.1328L72.9321 46.8427L74.3193 45.8386L73.8413 45.1781ZM94.313 40.808L94.1832 41.6129H94.1832L94.313 40.808ZM110.404 55.0131L109.599 54.8854L109.599 54.8855L110.404 55.0131ZM109.036 58.4692L108.372 57.995L108.093 58.3864L108.3 58.8206L109.036 58.4692ZM112.258 65.0902L111.516 65.4269L111.704 65.8414L112.155 65.899L112.258 65.0902ZM121.007 66.7065L121.77 66.4173L121.7 66.2341L121.555 66.1025L121.007 66.7065ZM121.051 67.3031L120.312 66.9592L120.312 66.9602L121.051 67.3031ZM113.2 71.5024L112.831 70.7751L112.452 70.9673L112.392 71.3886L113.2 71.5024ZM112.308 77.4887L111.507 77.3352L111.336 78.2271L112.242 78.3013L112.308 77.4887ZM120.486 87.1791L121.294 87.2855L121.294 87.2854L120.486 87.1791ZM101.817 113.673L101.406 112.969L100.832 113.303L101.044 113.933L101.817 113.673ZM106.684 143.898V144.713H107.497L107.499 143.901L106.684 143.898ZM105.684 143.898L104.875 144.001L104.966 144.713H105.684V143.898ZM105.534 141.452L104.719 141.485V141.485L105.534 141.452ZM100.537 113.254L100.081 112.579L99.5705 112.923L99.7617 113.508L100.537 113.254ZM102.014 112.257L102.47 112.933L102.474 112.931L102.014 112.257ZM118.346 91.7162L119.118 91.9794L119.118 91.9793L118.346 91.7162ZM112.195 78.4994L112.34 77.6971L111.421 77.5313L111.38 78.4636L112.195 78.4994ZM111.063 80.5297L110.658 81.237L110.806 81.3221L110.976 81.3403L111.063 80.5297ZM109.924 78.6274L110.697 78.3664L110.457 77.6561L109.729 77.8359L109.924 78.6274ZM100.493 84.8442L100.094 84.1332L100.092 84.1343L100.493 84.8442ZM92.0991 85.8656L92.3181 85.0803L92.3179 85.0803L92.0991 85.8656ZM84.7505 79.7201L84.0363 80.1133L84.0374 80.1154L84.7505 79.7201ZM83.52 68.8383L82.737 68.6111L82.7361 68.6143L83.52 68.8383ZM87.6108 62.3832L87.092 61.7544L87.0919 61.7544L87.6108 62.3832ZM106.014 59.809L105.615 59.098L105.615 59.0981L106.014 59.809ZM109.208 55.4399L109.996 55.6462V55.6462L109.208 55.4399ZM108.113 49.4037L107.411 49.8195V49.8195L108.113 49.4037ZM96.6128 42.4447L96.8173 41.6555L96.8173 41.6555L96.6128 42.4447ZM73.7456 46.5649L74.2267 47.2231V47.2231L73.7456 46.5649ZM68.2329 51.2338L67.4767 50.929L66.5868 53.1372L68.6435 51.9381L68.2329 51.2338ZM72.6577 46.0639L73.1835 46.687L73.4756 46.4405L73.473 46.0583L72.6577 46.0639ZM72.7436 42.9389L73.5578 42.9827V42.9827L72.7436 42.9389ZM73.2905 26.0902L74.1043 26.1403L74.1045 26.1368L73.2905 26.0902ZM73.7339 18.3412L74.5478 18.3878L74.5479 18.387L73.7339 18.3412ZM73.9136 14.0668L73.0983 14.0709L73.0983 14.0716L73.9136 14.0668ZM61.1489 8.309L61.6793 8.92822L61.6863 8.92216L61.6933 8.91595L61.1489 8.309ZM57.5845 15.3168L58.3712 15.5306V15.5306L57.5845 15.3168ZM52.77 53.4906L53.5849 53.5165V53.5165L52.77 53.4906ZM51.9477 55.2113L51.3061 55.7143L51.5572 56.0347L51.9643 56.0265L51.9477 55.2113ZM51.7124 48.3393L52.4975 48.1194L52.4974 48.1192L51.7124 48.3393ZM50.1235 43.7641L50.8897 43.4854L50.8891 43.4837L50.1235 43.7641ZM45.2651 31.0541L44.5065 31.3527L44.5077 31.3559L45.2651 31.0541ZM41.8599 22.4848L42.6098 22.165V22.165L41.8599 22.4848ZM33.2183 17.8217L33.3899 18.6187L33.3916 18.6183L33.2183 17.8217ZM28.7153 20.974L29.4045 21.4095L29.4059 21.4074L28.7153 20.974ZM28.0015 29.5522L27.2026 29.7148L27.2026 29.7148L28.0015 29.5522ZM37.1323 61.7279L37.9164 61.5045L37.9164 61.5045L37.1323 61.7279ZM36.9741 63.2289L36.9455 64.0437L37.4095 64.06L37.6603 63.6692L36.9741 63.2289ZM36.7515 63.2211L36.0803 63.684L36.3131 64.0215L36.7229 64.0359L36.7515 63.2211ZM34.8364 59.4164L34.317 60.0449L34.3171 60.0449L34.8364 59.4164ZM16.7739 42.0072L16.5359 42.7871L16.5433 42.7892L16.7739 42.0072ZM11.522 42.5619L11.9144 43.2766L11.9177 43.2747L11.522 42.5619ZM8.31982 46.6371L9.10447 46.8588L9.10717 46.8487L8.31982 46.6371ZM8.44482 51.2494L7.67333 51.5131L7.67551 51.5194L8.44482 51.2494ZM13.1089 58.9223L12.441 59.3899L12.4413 59.3903L13.1089 58.9223ZM21.2788 70.5746L20.6112 71.0427L20.6157 71.049L21.2788 70.5746ZM26.1626 77.5463L26.8797 77.1585L26.878 77.1553L26.1626 77.5463ZM26.2339 77.6781L27.0492 77.6784L27.0492 77.4719L26.951 77.2903L26.2339 77.6781ZM26.0727 83.142L26.888 83.1463V83.1462L26.0727 83.142ZM33.7749 110.394L34.4834 110.797L34.7331 110.359L34.4519 109.94L33.7749 110.394ZM31.0405 116.839L31.8093 117.111L31.8093 117.111L31.0405 116.839ZM24.7661 143.898V144.713H25.4755L25.5736 144.011L24.7661 143.898ZM23.6948 143.898L22.8858 143.797L22.7717 144.713H23.6948V143.898ZM32.4634 110.46L33.1872 110.835L33.4033 110.418L33.151 110.022L32.4634 110.46ZM25.104 77.8715L25.9186 77.9057L25.9302 77.6288L25.7707 77.4022L25.104 77.8715ZM14.2329 62.4262L13.5646 62.8932L13.5662 62.8954L14.2329 62.4262ZM7.56005 51.9965L6.80174 52.2959L6.80284 52.2987L7.56005 51.9965ZM7.07177 47.0942L7.87421 47.2383L7.87424 47.2381L7.07177 47.0942ZM10.4341 41.9721L10.8861 42.6506L10.8861 42.6506L10.4341 41.9721ZM19.4663 42.0248L18.9847 42.6827L18.9847 42.6827L19.4663 42.0248ZM27.0298 49.6654L27.6231 49.1063L27.6101 49.0925L27.5964 49.0793L27.0298 49.6654ZM34.8823 57.9203L34.2816 58.4715L35.6462 57.6355L34.8823 57.9203ZM33.439 53.3979L32.6566 53.6273L32.6566 53.6273L33.439 53.3979ZM27.5757 32.8236L28.372 32.6488V32.6488L27.5757 32.8236ZM27.2349 21.4076L26.4967 21.0614L26.4954 21.0643L27.2349 21.4076ZM31.9058 17.0522L32.1707 17.8232L32.1751 17.8217L31.9058 17.0522ZM38.4966 17.4604L38.8615 16.7313L38.8588 16.7299L38.4966 17.4604ZM45.6538 29.0024L46.4107 28.6993L46.4107 28.6993L45.6538 29.0024ZM51.9331 45.7055L51.1577 45.9573L52.7434 45.7959L51.9331 45.7055ZM52.8306 35.4643L53.6415 35.5485L53.6416 35.5469L52.8306 35.4643ZM55.8911 17.5063L55.0995 17.3112L55.0984 17.3157L55.8911 17.5063ZM106.722 60.8178L107.238 60.1861L106.857 59.8757L106.405 60.0667L106.722 60.8178ZM96.6323 61.0346L96.7868 60.2341L96.7867 60.2341L96.6323 61.0346ZM85.0405 67.9506L84.2875 67.6381L84.2875 67.6381L85.0405 67.9506ZM91.3804 84.4447L91.0796 85.2026L91.0867 85.2053L91.3804 84.4447ZM94.5835 85.2299L94.4923 86.0401L94.539 86.0453L94.5859 86.0452L94.5835 85.2299ZM104.645 79.8774L104.089 79.281V79.281L104.645 79.8774ZM109.304 77.6322L109.515 78.4199L110.422 78.1773L110.054 77.3129L109.304 77.6322ZM106.994 72.5805L107.73 72.2311L107.545 71.8402L107.117 71.7746L106.994 72.5805ZM98.0903 70.9399L97.2901 71.0958L97.3362 71.3323L97.5034 71.5058L98.0903 70.9399ZM106.006 66.2748L106.378 67.0004L106.735 66.8176L106.808 66.4234L106.006 66.2748ZM106.742 60.8334L107.428 60.3934L107.427 60.3916L106.742 60.8334ZM58.2651 10.2436L58.9949 10.6071C61.6096 5.35915 68.8602 4.48734 72.4665 9.17616L73.1128 8.67911L73.759 8.18207C69.3812 2.49015 60.6598 3.60896 57.5354 9.87999L58.2651 10.2436ZM73.1128 8.67911L72.4653 9.17461C73.4457 10.4556 74.0472 11.9838 74.2027 13.5869L75.0142 13.5082L75.8256 13.4295C75.6407 11.5231 74.9255 9.70624 73.7602 8.18362L73.1128 8.67911ZM75.0142 13.5082L74.2031 13.5909C74.2854 14.3983 74.2373 15.4005 74.1493 16.4721C74.0641 17.508 73.938 18.6398 73.8932 19.5726L74.7075 19.6117L75.5219 19.6509C75.5651 18.7505 75.6829 17.7189 75.7744 16.6056C75.8629 15.5279 75.9241 14.395 75.8252 13.4255L75.0142 13.5082ZM74.7075 19.6117L73.8932 19.5726C73.7608 22.3251 73.6331 25.077 73.4987 27.8278L74.313 27.8676L75.1273 27.9074C75.2617 25.1569 75.3897 22.3986 75.5219 19.6509L74.7075 19.6117ZM74.313 27.8676L73.4987 27.8278C73.3932 29.9878 73.339 32.1482 73.2879 34.299C73.2367 36.4528 73.1887 38.5959 73.0961 40.7367L73.9106 40.7719L74.7252 40.8071C74.8186 38.6472 74.8669 36.4866 74.918 34.3377C74.9691 32.1858 75.023 30.0444 75.1273 27.9073L74.313 27.8676ZM73.9106 40.7719L73.0961 40.7366C73.064 41.4781 73.0666 42.2442 73.067 42.9823C73.0673 43.7285 73.0654 44.4483 73.0273 45.1328L73.8413 45.1781L74.6553 45.2234C74.6963 44.4868 74.6979 43.7233 74.6975 42.9816C74.6972 42.2318 74.6949 41.5054 74.7252 40.8072L73.9106 40.7719ZM73.8413 45.1781L74.3193 45.8386C79.5906 42.0231 87.7034 40.5682 94.1832 41.6129L94.313 40.808L94.4427 40.0031C87.6153 38.9024 79.0459 40.4045 73.3633 44.5177L73.8413 45.1781ZM94.313 40.808L94.1832 41.6129C97.4442 42.1386 101.677 43.541 104.904 45.8124C108.129 48.0821 110.2 51.0939 109.599 54.8854L110.404 55.0131L111.209 55.1408C111.948 50.4791 109.323 46.9285 105.843 44.479C102.365 42.0312 97.8823 40.5576 94.4427 40.0031L94.313 40.808ZM110.404 55.0131L109.599 54.8855C109.44 55.8878 108.947 57.1914 108.372 57.995L109.036 58.4692L109.699 58.9434C110.443 57.9031 111.017 56.3527 111.209 55.1407L110.404 55.0131ZM109.036 58.4692L108.3 58.8206C109.363 61.0462 110.538 63.2693 111.516 65.4269L112.258 65.0902L113.001 64.7536C112.025 62.6003 110.784 60.2387 109.771 58.1177L109.036 58.4692ZM112.258 65.0902L112.155 65.899C113.138 66.0244 114.957 66.1803 116.812 66.4418C117.718 66.5696 118.579 66.7163 119.267 66.8842C119.612 66.9682 119.897 67.0536 120.115 67.1383C120.224 67.1804 120.307 67.219 120.369 67.2526C120.399 67.2692 120.422 67.2831 120.437 67.2938C120.453 67.3047 120.46 67.3105 120.46 67.3104L121.007 66.7065L121.555 66.1025C121.314 65.8843 120.998 65.7316 120.704 65.618C120.395 65.4982 120.036 65.3933 119.653 65.3C118.888 65.1133 117.965 64.9577 117.039 64.8272C115.23 64.572 113.189 64.3872 112.361 64.2815L112.258 65.0902ZM121.007 66.7065L120.245 66.9956C120.26 67.036 120.275 67.0717 120.286 67.0999C120.299 67.1308 120.305 67.1477 120.312 67.1636C120.317 67.1781 120.318 67.181 120.317 67.1775C120.316 67.1732 120.311 67.1588 120.308 67.1372C120.304 67.1147 120.301 67.088 120.302 67.0585C120.302 67.0291 120.305 67.0033 120.309 66.9824C120.316 66.9433 120.325 66.9312 120.312 66.9592L121.051 67.3031L121.79 67.6471C121.893 67.4257 121.966 67.168 121.916 66.866C121.895 66.7418 121.857 66.639 121.833 66.5769C121.821 66.5455 121.807 66.5123 121.798 66.4892C121.787 66.4632 121.778 66.4407 121.77 66.4173L121.007 66.7065ZM121.051 67.3031L120.312 66.9602C120.35 66.8778 120.358 66.9165 120.145 67.0794C119.97 67.2136 119.72 67.3766 119.403 67.563C118.773 67.9344 117.946 68.3593 117.075 68.7832C116.208 69.2056 115.314 69.6196 114.553 69.9696C113.804 70.3144 113.162 70.6073 112.831 70.7751L113.2 71.5024L113.568 72.2296C113.864 72.08 114.462 71.8065 115.235 71.4508C115.996 71.1005 116.905 70.6801 117.789 70.2492C118.671 69.8198 119.544 69.3726 120.231 68.9679C120.573 68.7663 120.886 68.5654 121.136 68.374C121.349 68.2113 121.644 67.9629 121.791 67.6461L121.051 67.3031ZM113.2 71.5024L112.392 71.3886C112.119 73.3298 111.863 75.4822 111.507 77.3352L112.308 77.4887L113.109 77.6422C113.474 75.7365 113.741 73.5044 114.007 71.6161L113.2 71.5024ZM112.308 77.4887L112.242 78.3013C114.766 78.5079 116.778 79.4838 118.074 80.9764C119.364 82.4612 120.012 84.5322 119.678 87.0728L120.486 87.1791L121.294 87.2854C121.682 84.3388 120.937 81.7854 119.305 79.9071C117.68 78.0365 115.242 76.9109 112.375 76.6761L112.308 77.4887ZM120.486 87.1791L119.678 87.0727C118.344 97.2016 110.231 107.825 101.406 112.969L101.817 113.673L102.227 114.378C111.404 109.029 119.883 98.0039 121.294 87.2855L120.486 87.1791ZM101.817 113.673L101.044 113.933C104.04 122.835 105.902 134.519 105.869 143.895L106.684 143.898L107.499 143.901C107.533 134.349 105.643 122.487 102.59 113.413L101.817 113.673ZM106.684 143.898V143.083H105.684V143.898V144.713H106.684V143.898ZM105.684 143.898L106.493 143.795C106.4 143.066 106.381 142.228 106.348 141.418L105.534 141.452L104.719 141.485C104.75 142.242 104.771 143.182 104.875 144.001L105.684 143.898ZM105.534 141.452L106.348 141.418C105.953 131.7 104.331 122.241 101.312 113.001L100.537 113.254L99.7617 113.508C102.732 122.597 104.33 131.906 104.719 141.485L105.534 141.452ZM100.537 113.254L100.993 113.93L102.47 112.933L102.014 112.257L101.558 111.581L100.081 112.579L100.537 113.254ZM102.014 112.257L102.474 112.931C110.133 107.7 116.073 100.909 119.118 91.9794L118.346 91.7162L117.575 91.4531C114.666 99.9812 108.988 106.507 101.554 111.584L102.014 112.257ZM118.346 91.7162L119.118 91.9793C120.242 88.6817 120.752 85.5065 119.822 82.9221C118.86 80.2446 116.452 78.4398 112.34 77.6971L112.195 78.4994L112.05 79.3017C115.81 79.9808 117.588 81.527 118.288 83.4738C119.022 85.5137 118.671 88.236 117.574 91.4532L118.346 91.7162ZM112.195 78.4994L111.38 78.4636C111.369 78.7126 111.369 78.9025 111.352 79.1304C111.337 79.3465 111.311 79.5108 111.273 79.6288C111.236 79.747 111.207 79.7517 111.233 79.7323C111.276 79.7003 111.282 79.7332 111.15 79.7191L111.063 80.5297L110.976 81.3403C111.424 81.3885 111.857 81.3038 112.215 81.0343C112.556 80.7772 112.731 80.4241 112.827 80.1242C113.003 79.5713 112.995 78.8682 113.009 78.5353L112.195 78.4994ZM111.063 80.5297L111.468 79.8224C111.044 79.5792 111.022 79.3298 110.697 78.3664L109.924 78.6274L109.152 78.8884C109.378 79.5559 109.565 80.6105 110.658 81.237L111.063 80.5297ZM109.924 78.6274L109.729 77.8359C106.686 78.5875 105.2 79.6565 103.967 80.8456C102.759 82.012 101.969 83.0811 100.094 84.1332L100.493 84.8442L100.892 85.5552C103.008 84.3674 104.038 83.0434 105.1 82.0189C106.138 81.0171 107.372 80.0976 110.12 79.4189L109.924 78.6274ZM100.493 84.8442L100.092 84.1343C97.7303 85.4683 94.9324 85.8091 92.3181 85.0803L92.0991 85.8656L91.8802 86.651C94.9113 87.496 98.1553 87.101 100.894 85.554L100.493 84.8442ZM92.0991 85.8656L92.3179 85.0803C89.3261 84.2467 86.9902 82.079 85.4635 79.3249L84.7505 79.7201L84.0374 80.1154C85.7235 83.1572 88.3742 85.6742 91.8803 86.651L92.0991 85.8656ZM84.7505 79.7201L85.4647 79.3269C83.738 76.1907 83.321 72.5025 84.3039 69.0623L83.52 68.8383L82.7361 68.6143C81.6349 72.4686 82.1022 76.6004 84.0363 80.1133L84.7505 79.7201ZM83.52 68.8383L84.303 69.0655C84.9883 66.7039 86.2614 64.5538 88.1297 63.012L87.6108 62.3832L87.0919 61.7544C84.9279 63.5401 83.4968 65.9928 82.737 68.6111L83.52 68.8383ZM87.6108 62.3832L88.1297 63.0121C89.835 61.605 91.4067 60.9601 92.8815 60.7114C94.3708 60.4603 95.8097 60.6041 97.2772 60.8486C100.113 61.3211 103.279 62.2794 106.413 60.5199L106.014 59.809L105.615 59.0981C103.11 60.5042 100.692 59.7645 97.5452 59.2402C96.0212 58.9863 94.3689 58.807 92.6104 59.1035C90.8374 59.4026 89.0046 60.1763 87.092 61.7544L87.6108 62.3832ZM106.014 59.809L106.413 60.52C108.29 59.4668 109.483 57.6079 109.996 55.6462L109.208 55.4399L108.419 55.2335C107.992 56.8635 107.026 58.306 105.615 59.098L106.014 59.809ZM109.208 55.4399L109.996 55.6462C110.627 53.2357 109.988 50.9675 108.814 48.9879L108.113 49.4037L107.411 49.8195C108.442 51.5576 108.905 53.3739 108.419 55.2335L109.208 55.4399ZM108.113 49.4037L108.814 48.9879C107.647 47.0201 105.589 45.4429 103.406 44.2446C101.208 43.0381 98.797 42.1686 96.8173 41.6555L96.6128 42.4447L96.4082 43.2339C98.2811 43.7194 100.562 44.5436 102.621 45.674C104.695 46.8126 106.461 48.2157 107.411 49.8195L108.113 49.4037ZM96.6128 42.4447L96.8173 41.6555C88.9753 39.6231 79.8784 41.0729 73.2645 45.9066L73.7456 46.5649L74.2267 47.2231C80.4156 42.7 89.0019 41.3144 96.4082 43.234L96.6128 42.4447ZM73.7456 46.5649L73.2645 45.9066C72.2423 46.6537 71.3295 47.5709 70.4735 48.3895C69.5962 49.2285 68.7618 49.9817 67.8223 50.5295L68.2329 51.2338L68.6435 51.9381C69.765 51.2843 70.7201 50.4098 71.6004 49.568C72.5019 48.7059 73.315 47.8894 74.2267 47.2231L73.7456 46.5649ZM68.2329 51.2338L68.9891 51.5386C69.7986 49.5301 71.3537 48.231 73.1835 46.687L72.6577 46.0639L72.1319 45.4408C70.3644 46.9322 68.4634 48.4809 67.4767 50.929L68.2329 51.2338ZM72.6577 46.0639L73.473 46.0583C73.4661 45.0533 73.503 43.9994 73.5578 42.9827L72.7436 42.9389L71.9295 42.895C71.8738 43.9303 71.8352 45.0198 71.8424 46.0695L72.6577 46.0639ZM72.7436 42.9389L73.5578 42.9827C73.7087 40.1768 73.76 37.341 73.8163 34.5257C73.8727 31.7051 73.9342 28.9036 74.1043 26.1403L73.2905 26.0902L72.4768 26.0402C72.3043 28.8418 72.2424 31.6753 72.186 34.4931C72.1296 37.3163 72.0787 40.1223 71.9295 42.8951L72.7436 42.9389ZM73.2905 26.0902L74.1045 26.1368L74.5478 18.3878L73.7339 18.3412L72.9199 18.2947L72.4766 26.0437L73.2905 26.0902ZM73.7339 18.3412L74.5479 18.387C74.6286 16.9501 74.7376 15.5427 74.7288 14.062L73.9136 14.0668L73.0983 14.0716C73.1067 15.4859 73.0031 16.8141 72.9199 18.2955L73.7339 18.3412ZM73.9136 14.0668L74.7288 14.0627C74.6927 6.91175 66.0699 2.80053 60.6046 7.70205L61.1489 8.309L61.6933 8.91595C66.0609 4.99884 73.0689 8.25809 73.0983 14.0709L73.9136 14.0668ZM61.1489 8.309L60.6186 7.68978C58.3207 9.65781 57.4908 12.5528 56.7977 15.103L57.5845 15.3168L58.3712 15.5306C59.0815 12.9173 59.8167 10.5234 61.6793 8.92822L61.1489 8.309ZM57.5845 15.3168L56.7977 15.103C53.3955 27.6211 52.3628 40.6217 51.9551 53.4648L52.77 53.4906L53.5849 53.5165C53.9912 40.7135 55.0193 27.8637 58.3712 15.5306L57.5845 15.3168ZM52.77 53.4906L51.9551 53.4647C51.9454 53.7728 51.9238 54.094 51.8507 54.3268C51.8152 54.4397 51.7865 54.4669 51.7963 54.4567C51.8264 54.4253 51.886 54.3971 51.9312 54.3962L51.9477 55.2113L51.9643 56.0265C52.3786 56.0181 52.723 55.8464 52.9735 55.585C53.2036 55.3449 53.3308 55.0558 53.4063 54.8156C53.555 54.3424 53.5755 53.8107 53.5849 53.5165L52.77 53.4906ZM51.9477 55.2113L52.5894 54.7084C52.6576 54.7954 52.6701 54.8604 52.6615 54.8307C52.6568 54.8145 52.6472 54.7733 52.6368 54.6984C52.6161 54.5488 52.6017 54.3353 52.5944 54.0598C52.58 53.5113 52.5955 52.8068 52.6145 52.0541C52.6332 51.3122 52.6551 50.5268 52.6501 49.8507C52.6453 49.2092 52.618 48.5498 52.4975 48.1194L51.7124 48.3393L50.9273 48.5591C50.9795 48.7454 51.0145 49.1853 51.0196 49.8628C51.0244 50.5058 51.0035 51.2591 50.9845 52.013C50.9657 52.7561 50.9487 53.5043 50.9644 54.1027C50.9723 54.4006 50.9887 54.684 51.0216 54.9221C51.0381 55.041 51.0611 55.1663 51.0956 55.2852C51.1262 55.3906 51.1845 55.5592 51.3061 55.7143L51.9477 55.2113ZM51.7124 48.3393L52.4974 48.1192C52.046 46.5091 51.4257 44.9588 50.8897 43.4854L50.1235 43.7641L49.3574 44.0428C49.9172 45.5817 50.4981 47.0282 50.9274 48.5594L51.7124 48.3393ZM50.1235 43.7641L50.8891 43.4837C49.3265 39.2177 47.7041 34.9731 46.0225 30.7524L45.2651 31.0541L44.5077 31.3559C46.1837 35.5624 47.8007 39.7928 49.358 44.0445L50.1235 43.7641ZM45.2651 31.0541L46.0238 30.7555C44.912 27.9307 43.8134 24.9878 42.6098 22.165L41.8599 22.4848L41.1099 22.8046C42.3017 25.5996 43.3801 28.4909 44.5065 31.3527L45.2651 31.0541ZM41.8599 22.4848L42.6098 22.165C41.1004 18.6249 37.0336 16.1571 33.0449 17.025L33.2183 17.8217L33.3916 18.6183C36.5301 17.9354 39.8717 19.9006 41.1099 22.8046L41.8599 22.4848ZM33.2183 17.8217L33.0466 17.0247C30.9661 17.4728 29.1544 18.7407 28.0248 20.5406L28.7153 20.974L29.4059 21.4074C30.3012 19.9809 31.7382 18.9744 33.3899 18.6187L33.2183 17.8217ZM28.7153 20.974L28.0261 20.5385C26.0392 23.683 26.5824 26.6683 27.2026 29.7148L28.0015 29.5522L28.8004 29.3895C28.1756 26.3205 27.8009 23.9473 29.4045 21.4095L28.7153 20.974ZM28.0015 29.5522L27.2026 29.7148C29.436 40.6847 33.317 51.3169 36.3483 61.9514L37.1323 61.7279L37.9164 61.5045C34.8391 50.7084 31.0189 40.286 28.8004 29.3895L28.0015 29.5522ZM37.1323 61.7279L36.3483 61.9514C36.4394 62.2711 36.4488 62.384 36.4434 62.4492C36.4402 62.4886 36.4282 62.5701 36.2879 62.7886L36.9741 63.2289L37.6603 63.6692C37.8746 63.3352 38.0347 62.9928 38.0685 62.5831C38.1001 62.1992 38.0114 61.8379 37.9164 61.5045L37.1323 61.7279ZM36.9741 63.2289L37.0027 62.4141L36.78 62.4063L36.7515 63.2211L36.7229 64.0359L36.9455 64.0437L36.9741 63.2289ZM36.7515 63.2211L37.4226 62.7582C37.1204 62.32 36.9388 61.7241 36.6539 60.9404C36.4019 60.247 36.0524 59.3636 35.3558 58.788L34.8364 59.4164L34.3171 60.0449C34.6289 60.3026 34.8577 60.7717 35.1214 61.4974C35.3523 62.1327 35.624 63.0224 36.0803 63.684L36.7515 63.2211ZM34.8364 59.4164L35.3558 58.788C34.389 57.9889 33.0568 56.6015 31.5036 54.9053C29.993 53.2556 28.2029 51.2352 26.4921 49.3746C24.7539 47.4841 22.9914 45.6403 21.3856 44.1855C20.5825 43.4578 19.8071 42.8169 19.0842 42.3128C18.3697 41.8146 17.6644 41.4199 17.0046 41.2253L16.7739 42.0072L16.5433 42.7892C16.9586 42.9117 17.4968 43.1938 18.1515 43.6503C18.7977 44.1009 19.5169 44.6926 20.2908 45.3938C21.8391 46.7966 23.5605 48.5953 25.2918 50.4782C27.0505 52.391 28.7153 54.2748 30.301 56.0065C31.844 57.6915 33.2494 59.1624 34.317 60.0449L34.8364 59.4164ZM16.7739 42.0072L17.0119 41.2275C15.047 40.6278 12.9216 40.8522 11.1262 41.8491L11.522 42.5619L11.9177 43.2747C13.3261 42.4927 14.994 42.3164 16.5359 42.787L16.7739 42.0072ZM11.522 42.5619L11.1296 41.8473C9.35585 42.8212 8.0567 44.4746 7.53246 46.4256L8.31982 46.6371L9.10717 46.8487C9.51591 45.3276 10.5292 44.0371 11.9144 43.2766L11.522 42.5619ZM8.31982 46.6371L7.53523 46.4155C7.06237 48.0896 7.11069 49.867 7.67335 51.5131L8.44482 51.2494L9.21628 50.9857C8.76067 49.6528 8.72161 48.2139 9.1044 46.8587L8.31982 46.6371ZM8.44482 51.2494L7.67551 51.5194C8.09066 52.7026 8.96167 54.2017 9.86198 55.6053C10.7726 57.0248 11.7597 58.4168 12.441 59.3899L13.1089 58.9223L13.7767 58.4547C13.0873 57.4699 12.1229 56.11 11.2345 54.7249C10.3357 53.3238 9.56006 51.9654 9.21412 50.9795L8.44482 51.2494ZM13.1089 58.9223L12.4413 59.3903L20.6112 71.0427L21.2788 70.5746L21.9464 70.1066L13.7764 58.4542L13.1089 58.9223ZM21.2788 70.5746L20.6157 71.049C21.1501 71.7958 22.2047 73.2164 23.1589 74.542C24.1478 75.9157 25.0616 77.2317 25.4472 77.9373L26.1626 77.5463L26.878 77.1553C26.434 76.3429 25.4539 74.939 24.4823 73.5893C23.476 72.1915 22.5036 70.8853 21.9419 70.1002L21.2788 70.5746ZM26.1626 77.5463L25.4454 77.9341L25.5167 78.0659L26.2339 77.6781L26.951 77.2903L26.8797 77.1585L26.1626 77.5463ZM26.2339 77.6781L25.4186 77.6779C25.4183 78.5614 25.3813 79.4555 25.3421 80.3701C25.3032 81.2791 25.2623 82.2093 25.2575 83.1378L26.0727 83.142L26.888 83.1462C26.8927 82.2542 26.932 81.3559 26.9712 80.4398C27.0102 79.5294 27.0489 78.6018 27.0492 77.6784L26.2339 77.6781ZM26.0727 83.142L25.2575 83.1377C25.2062 92.9347 27.547 102.577 33.0979 110.848L33.7749 110.394L34.4519 109.94C29.1154 101.988 26.8382 92.6803 26.888 83.1463L26.0727 83.142ZM33.7749 110.394L33.0664 109.991C32.0632 111.753 30.9438 114.665 30.2718 116.568L31.0405 116.839L31.8093 117.111C32.4819 115.206 33.56 112.419 34.4834 110.797L33.7749 110.394ZM31.0405 116.839L30.2718 116.568C27.1746 125.337 25.2362 134.628 23.9586 143.785L24.7661 143.898L25.5736 144.011C26.8415 134.922 28.7597 125.745 31.8093 117.111L31.0405 116.839ZM24.7661 143.898V143.083H23.6948V143.898V144.713H24.7661V143.898ZM23.6948 143.898L24.5039 143.999C25.0674 139.473 26.1836 133.21 27.6916 127.052C29.2029 120.88 31.093 114.877 33.1872 110.835L32.4634 110.46L31.7395 110.085C29.5534 114.304 27.6269 120.461 26.1078 126.664C24.5855 132.881 23.4575 139.206 22.8858 143.797L23.6948 143.898ZM32.4634 110.46L33.151 110.022C26.5131 99.601 25.4126 89.9613 25.9186 77.9057L25.104 77.8715L24.2894 77.8373C23.7763 90.0614 24.8867 100.083 31.7757 110.898L32.4634 110.46ZM25.104 77.8715L25.7707 77.4022L14.8996 61.9569L14.2329 62.4262L13.5662 62.8954L24.4373 78.3408L25.104 77.8715ZM14.2329 62.4262L14.9012 61.9592C13.9743 60.6328 12.5936 58.7289 11.2948 56.7965C9.98668 54.8501 8.82431 52.9647 8.31726 51.6943L7.56005 51.9965L6.80284 52.2987C7.38319 53.7528 8.64247 55.7732 9.94151 57.7061C11.2499 59.6528 12.662 61.6015 13.5646 62.8932L14.2329 62.4262ZM7.56005 51.9965L8.31836 51.6971C7.75893 50.2803 7.60509 48.7365 7.87421 47.2383L7.07177 47.0942L6.26933 46.95C5.94659 48.7467 6.13115 50.5977 6.80174 52.2959L7.56005 51.9965ZM7.07177 47.0942L7.87424 47.2381C8.21024 45.3656 9.29778 43.7088 10.8861 42.6506L10.4341 41.9721L9.98203 41.2936C8.02552 42.5971 6.68395 44.6394 6.2693 46.9502L7.07177 47.0942ZM10.4341 41.9721L10.8861 42.6506C13.2356 41.0851 16.6751 40.992 18.9847 42.6827L19.4663 42.0248L19.9479 41.367C17.0276 39.2293 12.8381 39.3906 9.98201 41.2936L10.4341 41.9721ZM19.4663 42.0248L18.9847 42.6827C20.3028 43.6475 21.525 44.9036 22.7522 46.2529C23.9601 47.5811 25.1926 49.0233 26.4631 50.2516L27.0298 49.6654L27.5964 49.0793C26.3762 47.8996 25.2153 46.5378 23.9584 45.1558C22.7208 43.795 21.4067 42.4348 19.9479 41.367L19.4663 42.0248ZM27.0298 49.6654L26.4364 50.2246C29.0594 53.0079 31.7538 55.7167 34.2816 58.4715L34.8823 57.9203L35.483 57.3691C32.957 54.6162 30.1938 51.8342 27.6231 49.1063L27.0298 49.6654ZM34.8823 57.9203L35.6462 57.6355C35.115 56.2106 34.6625 54.6725 34.2213 53.1684L33.439 53.3979L32.6566 53.6273C33.095 55.1216 33.5634 56.7163 34.1184 58.2051L34.8823 57.9203ZM33.439 53.3979L34.2213 53.1684C32.2054 46.2949 29.8898 39.5611 28.372 32.6488L27.5757 32.8236L26.7794 32.9985C28.3131 39.9832 30.6692 46.8508 32.6566 53.6273L33.439 53.3979ZM27.5757 32.8236L28.372 32.6488C27.9642 30.7919 27.4848 28.892 27.3002 26.9987C27.1168 25.118 27.2373 23.3384 27.9743 21.7509L27.2349 21.4076L26.4954 21.0643C25.5882 23.0184 25.4792 25.1256 25.6773 27.157C25.8742 29.1757 26.3873 31.213 26.7794 32.9985L27.5757 32.8236ZM27.2349 21.4076L27.973 21.7539C28.8077 19.9744 30.3637 18.4442 32.1707 17.8232L31.9058 17.0522L31.6408 16.2811C29.3562 17.0663 27.4901 18.9439 26.4967 21.0614L27.2349 21.4076ZM31.9058 17.0522L32.1751 17.8217C34.1296 17.1377 36.2797 17.2712 38.1344 18.1908L38.4966 17.4604L38.8588 16.7299C36.6109 15.6154 34.0055 15.4536 31.6364 16.2826L31.9058 17.0522ZM38.4966 17.4604L38.1316 18.1894C40.0532 19.1513 41.3225 20.8193 42.3287 22.8385C43.357 24.9021 44.0249 27.1273 44.8969 29.3054L45.6538 29.0024L46.4107 28.6993C45.6153 26.7129 44.8492 24.2408 43.7881 22.1113C42.7049 19.9374 41.2293 17.9166 38.8615 16.7313L38.4966 17.4604ZM45.6538 29.0024L44.8969 29.3054C47.0694 34.7314 49.3666 40.4427 51.1577 45.9573L51.9331 45.7055L52.7085 45.4536C50.8974 39.8772 48.5781 34.1128 46.4107 28.6993L45.6538 29.0024ZM51.9331 45.7055L52.7434 45.7959C52.9323 44.1027 53.0691 42.3828 53.2022 40.6696C53.3358 38.9521 53.4656 37.2423 53.6415 35.5485L52.8306 35.4643L52.0196 35.3801C51.8412 37.0993 51.7096 38.8323 51.5766 40.5432C51.4432 42.2584 51.3084 43.9526 51.1228 45.615L51.9331 45.7055ZM52.8306 35.4643L53.6416 35.5469C54.2542 29.5359 55.271 23.5726 56.6838 17.6969L55.8911 17.5063L55.0984 17.3157C53.6686 23.2623 52.6394 29.2977 52.0195 35.3816L52.8306 35.4643ZM55.8911 17.5063L56.6827 17.7013C57.3109 15.1522 57.87 12.8648 58.9949 10.6071L58.2651 10.2436L57.5354 9.88C56.3169 12.3258 55.7207 14.7905 55.0995 17.3112L55.8911 17.5063ZM106.722 60.8178L106.405 60.0667C104.18 61.0062 102.942 61.235 101.74 61.1689C101.119 61.1348 100.481 61.0204 99.6834 60.85C98.8997 60.6827 97.9495 60.4584 96.7868 60.2341L96.6323 61.0346L96.4779 61.8351C97.6219 62.0558 98.5156 62.268 99.3429 62.4447C100.156 62.6184 100.897 62.7556 101.651 62.797C103.199 62.8821 104.699 62.5574 107.039 61.5688L106.722 60.8178ZM96.6323 61.0346L96.7867 60.2341C91.2141 59.1591 86.3026 62.7823 84.2875 67.6381L85.0405 67.9506L85.7935 68.2631C87.5905 63.9328 91.8499 60.9424 96.4779 61.8351L96.6323 61.0346ZM85.0405 67.9506L84.2875 67.6381C81.6643 73.9598 84.3269 82.5226 91.0796 85.2025L91.3804 84.4447L91.6811 83.687C85.9196 81.4003 83.4564 73.8954 85.7935 68.2631L85.0405 67.9506ZM91.3804 84.4447L91.0867 85.2053C92.1809 85.6278 93.3259 85.9089 94.4923 86.0401L94.5835 85.2299L94.6746 84.4197C93.6474 84.3042 92.6385 84.0566 91.674 83.6842L91.3804 84.4447ZM94.5835 85.2299L94.5859 86.0452C97.1638 86.0375 99.0352 85.3963 100.677 84.3474C102.271 83.3297 103.653 81.9165 105.201 80.4737L104.645 79.8774L104.089 79.281C102.455 80.8039 101.23 82.0597 99.7997 82.9732C98.4182 83.8556 96.8495 84.4078 94.5811 84.4146L94.5835 85.2299ZM104.645 79.8774L105.201 80.4737C105.629 80.0747 106.347 79.6512 107.177 79.2713C107.994 78.8978 108.854 78.5965 109.515 78.4199L109.304 77.6322L109.094 76.8446C108.343 77.0453 107.397 77.378 106.499 77.7884C105.615 78.1925 104.709 78.7029 104.089 79.281L104.645 79.8774ZM109.304 77.6322L110.054 77.3129C109.312 75.568 108.534 73.9257 107.73 72.2311L106.994 72.5805L106.257 72.9298C107.062 74.6278 107.826 76.2415 108.554 77.9516L109.304 77.6322ZM106.994 72.5805L107.117 71.7746C106.671 71.7061 105.932 71.6247 105.097 71.5302C104.25 71.4344 103.281 71.3228 102.34 71.1918C101.396 71.0604 100.5 70.912 99.7952 70.7454C99.442 70.6618 99.156 70.5781 98.9443 70.4967C98.7065 70.4054 98.6553 70.3512 98.6772 70.374L98.0903 70.9399L97.5034 71.5058C97.7421 71.7533 98.0784 71.9108 98.3595 72.0188C98.6667 72.1369 99.0309 72.2402 99.4199 72.3322C100.2 72.5166 101.156 72.6732 102.116 72.8069C103.079 72.941 104.067 73.0546 104.914 73.1504C105.772 73.2476 106.465 73.3242 106.87 73.3864L106.994 72.5805ZM98.0903 70.9399L98.8906 70.784C98.9204 70.9369 98.876 71.0406 98.8676 71.0585C98.8597 71.0751 98.8668 71.0542 98.9205 70.9949C99.0286 70.8758 99.2251 70.71 99.523 70.5036C100.111 70.0965 100.95 69.6284 101.866 69.1589C102.777 68.6927 103.736 68.239 104.552 67.8592C105.351 67.4868 106.045 67.1712 106.378 67.0004L106.006 66.2748L105.635 65.5492C105.338 65.7013 104.7 65.9916 103.863 66.381C103.043 66.7629 102.061 67.227 101.123 67.7076C100.191 68.1848 99.2739 68.6925 98.5944 69.1633C98.2588 69.3958 97.9441 69.6444 97.7128 69.8994C97.5969 70.0272 97.4773 70.1832 97.3919 70.3648C97.306 70.5475 97.2332 70.804 97.2901 71.0958L98.0903 70.9399ZM106.006 66.2748L106.808 66.4234C106.879 66.0419 107.135 64.7635 107.336 63.546C107.436 62.9368 107.526 62.323 107.574 61.8274C107.597 61.5817 107.612 61.3453 107.609 61.1446C107.608 61.0449 107.602 60.9353 107.585 60.8283C107.571 60.7417 107.538 60.5647 107.428 60.3934L106.742 60.8334L106.055 61.2734C106.012 61.2058 105.993 61.1494 105.985 61.1255C105.981 61.1113 105.978 61.1005 105.977 61.094C105.975 61.0874 105.975 61.0835 105.975 61.0828C105.974 61.0819 105.975 61.0884 105.977 61.1042C105.978 61.1196 105.979 61.1405 105.979 61.1675C105.981 61.2817 105.972 61.4506 105.951 61.6725C105.909 62.112 105.826 62.6822 105.727 63.2805C105.529 64.478 105.282 65.7086 105.205 66.1262L106.006 66.2748ZM106.742 60.8334L107.427 60.3916C107.377 60.3143 107.323 60.2586 107.282 60.2216C107.242 60.1857 107.206 60.1612 107.191 60.1504C107.182 60.1447 107.175 60.1402 107.173 60.1389C107.169 60.1362 107.173 60.1388 107.175 60.1403C107.181 60.1438 107.206 60.1607 107.238 60.1861L106.722 60.8178L106.207 61.4495C106.241 61.4775 106.27 61.4968 106.279 61.5027C106.283 61.5053 106.289 61.5091 106.287 61.5075C106.287 61.5074 106.281 61.5041 106.275 61.4995C106.262 61.4912 106.231 61.4692 106.194 61.436C106.155 61.4017 106.104 61.3491 106.056 61.2752L106.742 60.8334Z" fill="white" mask="url(#path-2-outside-1_7_12)"/>
</g>
<defs>
<filter id="filter0_i_7_12" x="6.92969" y="5.29944" width="114.187" height="138.599" filterUnits="userSpaceOnUse" color-interpolation-filters="sRGB">
<feFlood flood-opacity="0" result="BackgroundImageFix"/>
<feBlend mode="normal" in="SourceGraphic" in2="BackgroundImageFix" result="shape"/>
<feColorMatrix in="SourceAlpha" type="matrix" values="0 0 0 0 0 0 0 0 0 0 0 0 0 0 0 0 0 0 127 0" result="hardAlpha"/>
<feOffset/>
<feGaussianBlur stdDeviation="17"/>
<feComposite in2="hardAlpha" operator="arithmetic" k2="-1" k3="1"/>
<feColorMatrix type="matrix" values="0 0 0 0 0.00784314 0 0 0 0 0.352941 0 0 0 0 0.854902 0 0 0 1 0"/>
<feBlend mode="normal" in2="shape" result="effect1_innerShadow_7_12"/>
</filter>
<clipPath id="clip0_7_12">
<rect width="128" height="128" fill="white"/>
</clipPath>
</defs>
</svg>
